<svg xmlns="http://www.w3.org/2000/svg" width="24" height="24" viewBox="0 0 24 24">
  <path id="path" d="M20.143,1165.436,27,1172.254l-2.057,2.045-6.857-6.818v-1.091l-.411-.409a8.756,8.756,0,0,1-5.76,2.045,8.305,8.305,0,0,1-6.309-2.591A8.967,8.967,0,0,1,3,1159.164a8.212,8.212,0,0,1,2.606-6.273,9.072,9.072,0,0,1,6.309-2.591,8.514,8.514,0,0,1,6.309,2.591,8.967,8.967,0,0,1,2.606,6.273,8.644,8.644,0,0,1-2.057,5.727l.411.409h.96Zm-12.617-1.773a5.81,5.81,0,0,0,4.389,1.773,6.021,6.021,0,0,0,4.389-1.773,6.231,6.231,0,0,0,0-8.727,5.81,5.81,0,0,0-4.389-1.773,6.021,6.021,0,0,0-4.389,1.773,5.743,5.743,0,0,0-1.783,4.364A6.29,6.29,0,0,0,7.526,1163.664Z" transform="translate(-3 -1150.3)" fill="#596e79"/>
</svg>
