<svg xmlns="http://www.w3.org/2000/svg" width="30" height="30" viewBox="0 0 30 30">
  <path id="path" d="M63.909,810.9,68,818.4v9.375H65.273a6.516,6.516,0,0,1-1.227,3.938,3.273,3.273,0,0,1-5.727,0,6.517,6.517,0,0,1-1.227-3.937H48.909a6.516,6.516,0,0,1-1.227,3.938,3.274,3.274,0,0,1-5.727,0,6.517,6.517,0,0,1-1.227-3.937H38V807.15a4.479,4.479,0,0,1,.818-2.625,2.406,2.406,0,0,1,1.909-1.125H59.818v7.5ZM43.318,829.837a1.875,1.875,0,0,0,3,0,4.172,4.172,0,0,0,0-4.125,1.875,1.875,0,0,0-3,0,4.172,4.172,0,0,0,0,4.125Zm16.364,0a1.875,1.875,0,0,0,3,0,4.172,4.172,0,0,0,0-4.125,1.875,1.875,0,0,0-3,0,4.172,4.172,0,0,0,0,4.125Zm3.545-16.125H59.818V818.4h6.136Z" transform="translate(-38 -803.4)" fill="#596e79"/>
</svg>
